<?xml version="1.0" standalone="no"?>
<!DOCTYPE svg PUBLIC "-//W3C//DTD SVG 20010904//EN"
 "http://www.w3.org/TR/2001/REC-SVG-20010904/DTD/svg10.dtd">
<svg version="1.0" xmlns="http://www.w3.org/2000/svg"
 width="874.000000pt" height="874.000000pt" viewBox="0 0 874.000000 874.000000"
 preserveAspectRatio="xMidYMid meet">
<metadata>
Created by potrace 1.14, written by Peter Selinger 2001-2017
</metadata>
<g transform="translate(0.000000,874.000000) scale(0.100000,-0.100000)"
fill="#000000" stroke="none">
<path d="M2385 8697 c8 -19 31 -82 51 -138 115 -331 210 -607 241 -699 61
-186 155 -475 159 -490 2 -8 28 -96 59 -195 91 -297 129 -437 176 -647 45
-203 46 -346 3 -552 -19 -91 -79 -331 -105 -420 -12 -38 -22 -76 -24 -85 -12
-50 -132 -444 -200 -651 -63 -194 -246 -737 -323 -957 -27 -79 -48 -143 -46
-143 2 0 535 334 643 404 36 22 73 46 83 51 19 10 147 91 208 131 19 12 184
115 365 229 182 114 435 273 563 354 128 80 245 153 260 162 15 9 182 114 372
234 190 120 357 225 372 234 15 9 112 69 215 134 103 66 197 124 208 130 11 7
22 15 25 18 3 3 30 20 60 38 30 18 74 44 98 59 23 15 142 90 265 166 122 77
230 145 240 151 16 12 15 14 -15 32 -18 11 -242 152 -498 313 -256 161 -508
319 -560 352 -52 32 -165 103 -250 157 -153 96 -536 337 -962 604 -120 76
-316 199 -435 274 -120 75 -280 175 -355 222 -76 47 -209 131 -295 185 -685
432 -620 394 -598 343z"/>
<path d="M6000 4794 c-356 -225 -1131 -713 -1221 -769 -27 -16 -90 -56 -141
-88 -51 -32 -307 -192 -568 -356 -261 -165 -565 -356 -675 -425 -110 -69 -267
-168 -350 -220 -82 -51 -268 -168 -412 -257 l-262 -164 97 -62 c53 -34 102
-67 109 -73 7 -5 14 -10 16 -10 5 0 58 -33 866 -542 239 -150 450 -283 470
-294 20 -12 86 -53 146 -92 61 -39 162 -103 225 -142 97 -60 553 -345 700
-439 25 -15 169 -106 320 -201 151 -94 291 -182 310 -195 38 -24 158 -100 248
-156 31 -19 148 -92 259 -162 112 -70 209 -130 217 -133 9 -3 -4 44 -36 133
-245 677 -558 1654 -613 1910 -2 10 -15 69 -30 132 -14 63 -29 133 -33 155 -9
53 -8 259 2 311 4 22 9 54 12 70 3 17 9 44 14 60 5 17 11 41 14 55 11 69 101
403 155 580 16 52 41 136 56 185 77 252 298 917 423 1273 27 78 47 142 43 141
-3 0 -166 -102 -361 -225z"/>
</g>
</svg>
